inDegrees=no
num_controls=7
num_derivatives=13
num_iterations=122
num_multipliers=7
num_parameters=0
num_slacks=7
num_states=26
objective=5.074194
objective_accelerations=0.405576
objective_balance=0.088904
objective_effort=0.349164
objective_height=4.189378
objective_ligament=0.041173
solver_duration=1366.419703
status=Solve_Succeeded
success=true
DataType=double
version=3
OpenSimVersion=4.4-2022-07-23-0e9fedc
endheader
time	/jointset/ground_pelvis/pelvis_tilt/value	/jointset/ground_pelvis/pelvis_tx/value	/jointset/ground_pelvis/pelvis_ty/value	/jointset/hip_l/hip_flexion_l/value	/jointset/hip_l/hip_adduction_l/value	/jointset/hip_l/hip_rotation_l/value	/jointset/back/lumbar_extension/value	/jointset/patellofemoral_l/patellar_flexion_l/value	/jointset/knee_l/knee_flexion_l/value	/jointset/knee_l/knee_adduction_l/value	/jointset/knee_l/knee_rotation_l/value	/jointset/ankle_l/ankle_angle_l/value	/jointset/subtalar_l/subtalar_angle_l/value	/jointset/ground_pelvis/pelvis_tilt/speed	/jointset/ground_pelvis/pelvis_tx/speed	/jointset/ground_pelvis/pelvis_ty/speed	/jointset/hip_l/hip_flexion_l/speed	/jointset/hip_l/hip_adduction_l/speed	/jointset/hip_l/hip_rotation_l/speed	/jointset/back/lumbar_extension/speed	/jointset/patellofemoral_l/patellar_flexion_l/speed	/jointset/knee_l/knee_flexion_l/speed	/jointset/knee_l/knee_adduction_l/speed	/jointset/knee_l/knee_rotation_l/speed	/jointset/ankle_l/ankle_angle_l/speed	/jointset/subtalar_l/subtalar_angle_l/speed	/forceset/tau_hip_flexion_l	/forceset/tau_hip_adduction_l	/forceset/tau_hip_rotation_l	/forceset/tau_knee_flexion_l	/forceset/tau_ankle_angle_l	/forceset/tau_subtalar_angle_l	/forceset/tau_lumbar_extension	lambda_cid13_p0	lambda_cid13_p1	lambda_cid13_p2	lambda_cid13_p3	lambda_cid13_p4	lambda_cid13_p5	lambda_cid14_p0	/jointset/ground_pelvis/pelvis_tilt/accel	/jointset/ground_pelvis/pelvis_tx/accel	/jointset/ground_pelvis/pelvis_ty/accel	/jointset/hip_l/hip_flexion_l/accel	/jointset/hip_l/hip_adduction_l/accel	/jointset/hip_l/hip_rotation_l/accel	/jointset/back/lumbar_extension/accel	/jointset/patellofemoral_l/patellar_flexion_l/accel	/jointset/knee_l/knee_flexion_l/accel	/jointset/knee_l/knee_adduction_l/accel	/jointset/knee_l/knee_rotation_l/accel	/jointset/ankle_l/ankle_angle_l/accel	/jointset/subtalar_l/subtalar_angle_l/accel	gamma_cid13_p0	gamma_cid13_p1	gamma_cid13_p2	gamma_cid13_p3	gamma_cid13_p4	gamma_cid13_p5	gamma_cid14_p0
1	-0.5365666350403085	-0.07751054864865597	0.6838568798478083	1.593234555052986	-0.3041970536436006	0.07160465953987608	-0.4363309392553363	1.012795157665734	1.012795157665816	-0.1745032619891845	0.1745178175061547	0.1447314904307764	-0.02508994555206078	-0.009725784385080481	0.0006886017522755238	-0.002887500557382296	0.01531725835150125	0.0004041964542153205	0.003125226344986097	0.0001004546298736748	0.008500555258494113	0.008500555258495303	-3.099809339768372e-05	1.380400214310033e-05	0.00354714103360946	0.001091640629627017	-0.3630146497261056	0.02996225147019961	-0.02151802144552854	-0.2339968157554411	0.06858413642883937	0.04344267011156586	0.3088287554154088	-21.74910206732632	-16.34371694994366	3.670624931707002	10.01587349289366	-699.42377997623	-50.87379130457643	-8.396301858798571	1.577070808622468	0.2011722688234332	1.207197797004741	-4.89597084146834	-0.1838421845582116	-1.410929046964467	-0.03349126164144679	-3.959147245099098	-3.959147245099079	-0.02755018467900311	0.008482616971905069	-0.8971487788031525	-0.3452792015991743	1.67234664904326e-09	2.247453248226923e-09	-3.958687948164743e-09	-2.39148009795262e-09	1.746168224023307e-09	4.521844236942128e-11	7.850230792240842e-10
1.01	-0.5365856954124812	-0.07749365065278854	0.6838882622151673	1.593143830313074	-0.3042015834241122	0.07156490771217924	-0.4363307980856916	1.01268244250311	1.012682442503301	-0.1745035129414227	0.1745179395756802	0.144722259155936	-0.02509555872176078	0.005904907782768362	0.002690678156728285	0.009163184926530722	-0.03345562062874587	-0.001308377552103014	-0.01107735132320314	-5.628690610329641e-05	-0.03105047365343233	-0.03105047365343152	-1.777403367425769e-05	8.831214162679116e-06	-0.005398304674137515	-0.002213091079340718	-0.363051573872804	0.03001281848441307	-0.02151573217077552	-0.233895958819537	0.06847770774456385	0.04346845394821087	0.3088725260137001	-21.7806154719371	-16.35090289054111	3.673490603765684	10.02377985389116	-699.3995605585694	-50.88295102195384	-8.403301808174437	1.554747926398545	0.1996779110387513	1.203884735734504	-4.866958841608374	-0.1646998036058012	-1.425188348771339	-0.004375474885966233	-3.954113110475998	-3.95411311047592	0.01597047423061509	-0.005256579319060288	-0.893978891407762	-0.3228929931526976	-2.643706668884214e-09	-5.96639894878045e-09	1.124491757223338e-08	2.324728659958378e-09	-4.056177231498793e-09	2.519036552787073e-09	-2.389832862439393e-09
1.02	-0.536448712961866	-0.07745674137591957	0.6840401275996945	1.592565574300391	-0.3042231859036607	0.07138307686336681	-0.436331746309856	1.012174010572126	1.012174010572338	-0.1745035892985037	0.1745179580468063	0.1446234261390883	-0.02513418377607162	0.02148278017192587	0.004690857952583997	0.02120910287629502	-0.08218899622120739	-0.003010343355901604	-0.02529057787240541	-0.0001174234545243564	-0.07064279841483911	-0.07064279841483943	3.920943350047251e-06	-6.915679257524333e-06	-0.0143732073677835	-0.00551073629259797	-0.3630884980190156	0.03006338549863046	-0.02151344289604567	-0.2337951018836882	0.06837127906019926	0.04349423778484206	0.3089162966125429	-21.82029601004934	-16.35729906843177	3.676961551378103	10.05964216948591	-699.4811420253326	-50.87516785890959	-8.434824763530722	1.566506852884193	0.2007929471040173	1.206244290174995	-4.888070163911215	-0.1817205440542303	-1.41305882316709	-0.01437026412860914	-3.967406414995166	-3.967406414995298	-0.02585600121876237	0.006327795883917099	-0.9030401759829557	-0.3438619024570415	-5.78733755708818e-09	-1.402314087350148e-08	2.770029067981625e-08	4.218631474676214e-09	-7.961699153209614e-09	5.699994411422522e-09	-5.915704869092812e-09
1.03	-0.5361561541827596	-0.07739972430151275	0.6843123937276593	1.591500141345777	-0.304261734042756	0.07105915047806997	-0.4363322607620607	1.011269679491168	1.011269679491142	-0.1745034376653805	0.1745177958948046	0.1444349243657027	-0.02520567806118141	0.03702608860891334	0.0067238171368228	0.03323988365244278	-0.1308949573903928	-0.004695537972000286	-0.03948885680529411	8.764766475172044e-05	-0.1102072687080284	-0.1102072687080265	2.555038583763541e-05	-2.320460302888782e-05	-0.02330934243606635	-0.008779922208969263	-0.3634341988337665	0.03018490868001401	-0.02150004829480738	-0.2333961452446556	0.06822799236404119	0.04359846026028549	0.3093227411500438	-21.86544696071273	-16.40281965024725	3.69354222298503	9.933864320119319	-699.599752494215	-50.90659319123113	-8.490902178927531	1.547809031511742	0.2062376633797448	1.2008567185986	-4.86146453395776	-0.1613613670711373	-1.422344741631273	0.04891267460436179	-3.94854306571626	-3.94854306571581	0.01604069194768775	-0.005270600206588614	-0.8862296808554867	-0.3172188282575673	-8.919004951111287e-09	-2.207827963217876e-08	4.416843692604386e-08	6.083735249157368e-09	-1.184786573273867e-08	8.888167981774484e-09	-9.445158672327762e-09
